PathFileType	4	(X/Y/Z)	12_2_31_p1_0-425.trc
DataRate	CameraRate	NumFrames	NumMarkers	Units	OrigDataRate	OrigDataStartFrame	OrigNumFrames
59.0	59.0	5	27	m	59.0	319	426
Frame#	Time	RHip			RKnee			RAnkle			RBigToe			RSmallToe			RHeel			LHip			LKnee			LAnkle			LBigToe			LSmallToe			LHeel			Neck			Head			Nose			RShoulder			RElbow			RWrist			RThumb			RIndex			RPinky			LShoulder			LElbow			LWrist			LThumb			LIndex			LPinky			
		X1	Y1	Z1	X2	Y2	Z2	X3	Y3	Z3	X4	Y4	Z4	X5	Y5	Z5	X6	Y6	Z6	X7	Y7	Z7	X8	Y8	Z8	X9	Y9	Z9	X10	Y10	Z10	X11	Y11	Z11	X12	Y12	Z12	X13	Y13	Z13	X14	Y14	Z14	X15	Y15	Z15	X16	Y16	Z16	X17	Y17	Z17	X18	Y18	Z18	X19	Y19	Z19	X20	Y20	Z20	X21	Y21	Z21	X22	Y22	Z22	X23	Y23	Z23	X24	Y24	Z24	X25	Y25	Z25	X26	Y26	Z26	X27	Y27	Z27	
319	5.406779661016949	0.2915894928404298	0.5672928652164513	1.246046468771877	0.4986134972564616	0.4200134970030249	1.4899364946158828	0.4807431524895991	0.6316179076993229	1.9682126600387873	0.5104513893538937	0.3857904229891208	1.9264294648753597	0.5520804613503831	0.4638503899331962	1.9535994067431068	0.4463457065259187	0.7024372825558683	2.0476899514661056	0.1157232595387195	0.5013212070820237	1.2574699381398458	0.32439947841905376	0.2526447642112582	1.5178064991825018	0.31833626152223116	0.5536691685944748	1.9441634366218596	0.33494024506708353	0.39272091259729797	1.9646691615285028	0.27843145841263134	0.4044282580019415	1.9426425038154658	0.3268022257542624	0.6646166538384245	2.0126704429606708	0.4958385814467983	0.47549880463260985	0.7693022666954936	0.6847855015956866	0.48900958731185074	0.5851676450987562	0.6355886693671661	0.39816309136507533	0.6982444812270011	0.44802281648179043	0.6354219759578686	0.8515179757413607	0.13196299747454288	0.5953183481044527	0.956510060062058	-0.01835100062204258	0.5396496789561169	1.1497877246920072	-0.12065889097014978	0.6977250363825107	1.3569540688384107	-0.151120458124059	0.6425632181110457	1.3443559280828756	-0.15333327011172887	0.6561848971872968	1.2582418158624342	0.3972262050611049	0.35611909297797617	0.776915647493058	0.13362591469033683	0.24924683646041798	0.8249775053102669	-0.005866398879278391	0.2655408084253747	1.000614961497726	-0.027851615058580477	0.31233867719811814	1.0886842047795722	-0.0450470888625335	0.2935236452979846	1.0865373195977737	-0.06260324204926146	0.22019889947510038	1.03129569666067
320	5.423728813559322	0.29132065070705837	0.5689112057195245	1.2421946771758743	0.49980184574497843	0.40645967541780914	1.4738509195146021	0.4760683277028133	0.6296349030730124	1.9676913129981797	0.5101088474967784	0.3845943218067993	1.9254497060983815	0.5547150180148797	0.44754624484965777	1.9418147829048973	0.44671046784083307	0.7026038467905318	2.0472925546043883	0.12438362021376179	0.49168002594612986	1.2478182552351482	0.3207260466171296	0.2651580400080611	1.5255766404632718	0.3182765466988147	0.5536650660671613	1.943970227185244	0.3296972550663208	0.3811541993197319	1.9522403261692864	0.27471462834170257	0.42002396124685776	1.949316246302547	0.332078003918964	0.6490517393961092	2.0018861540027912	0.4886074840279167	0.4793163291710295	0.7703748920769278	0.6847137781776912	0.47527743769094616	0.5676026019739507	0.6308957462239015	0.41327533521460597	0.6907677198905705	0.4434754183365193	0.6532324843828372	0.848079098317245	0.12029358419894952	0.5987156025048527	0.9574166967805118	-0.01857084827625176	0.569347247068517	1.1637117496191607	-0.13158759575205312	0.6231781868567965	1.3466698396550463	-0.14609954778362888	0.6646056143550119	1.352651120209848	-0.15338254352613612	0.6694030576995466	1.261935110980259	0.39681283678090934	0.3495556909430545	0.7640068017505073	0.12830994895765546	0.24670903960737386	0.8160691569953868	-0.02377720100501206	0.25036703355915546	0.9992695536857273	-0.09169252093412456	0.39233210048980477	1.1522189740464084	-0.14592315227813582	0.34893875858008305	1.1241070591940037	-0.09660058630376298	0.2132454969012245	0.9961941660503062
321	5.440677966101695	0.29927750213233056	0.5549597462306758	1.2305744467202968	0.50083185690046	0.40430189566816466	1.4774204290105484	0.47602065573517116	0.6294978593796572	1.9677745077905155	0.5097076626531153	0.38420589831873175	1.9251352432110544	0.5509077028921594	0.43718788682180265	1.9349579452814412	0.4503437059040518	0.6877333742027041	2.036210665933493	0.129212513666108	0.47848023466489403	1.2452378271859992	0.31950046886932804	0.26743389470575873	1.522138245117454	0.31752624695819187	0.5556181208867549	1.9407906107310022	0.3297068225513948	0.38245118610536694	1.953106008039017	0.2786325006023053	0.40722732516535864	1.9392847765048362	0.33626470901546796	0.6649082243076891	2.007472237562755	0.4826062450630876	0.4938076892942282	0.7589793690793795	0.6792601373596523	0.47586759872996187	0.5573903541926165	0.6287883632268613	0.4160232542208267	0.6801968924847966	0.44357120379064563	0.673865655294061	0.8456232941761097	0.11569184551127418	0.6200703049533605	0.9614682980558982	-0.02219225624656256	0.5660301025914121	1.1505641449256938	-0.03916207227400302	0.4800807681491182	1.250911613459122	-0.11729681411602001	0.6355234341967492	1.3289666397710316	-0.14394691617190458	0.688424230290122	1.2751511433624438	0.3916447378002485	0.36066254636081313	0.7611461727945028	0.12944494451366056	0.2248426963637419	0.8050861069292391	-0.030188504971230573	0.2130168082591906	0.9962400319447993	-0.05028526284925973	0.2571269649220678	1.111549770594163	-0.11032585825880008	0.2600367178140636	1.0813678341327522	-0.15033684348711532	0.28567140269696284	1.0553873251649677
322	5.4576271186440675	0.2902079555986852	0.5851562178290725	1.243323636865018	0.501165302874952	0.40495809225648544	1.4729203092487697	0.47601966406423046	0.6295765790648649	1.96779060397623	0.5085568921968842	0.3833489510151174	1.9211463788002894	0.5482454164963748	0.4531680169763367	1.9465943193794402	0.45008935524987403	0.6877859024833766	2.0364494611671033	0.1342422641162794	0.46567098286123715	1.2389642087879835	0.3195671795488269	0.26728364153810497	1.5219848585005173	0.32201370256833584	0.5693213639214886	1.9490831945772966	0.3355738721285705	0.3966911937074928	1.967888719834637	0.2817208969237923	0.4202474799847644	1.9524153859957787	0.336516691775983	0.6652735604272998	2.007955090228903	0.48561951616336335	0.5035693507471654	0.7566512480475941	0.659974604564293	0.47468325183442156	0.5405667578701752	0.627186379471806	0.4157141190028838	0.6722380057758868	0.44347659264697586	0.6750448249676416	0.8397289801818003	0.12353584976894125	0.6397690241975712	0.9654406818765855	-0.01381784848626861	0.592785776376194	1.1546949242822182	-0.05720828631097867	0.6365978931162413	1.301409240928467	-0.08685949505445262	0.6347788413733141	1.3246855847647652	-0.10364521821458411	0.7419309356242119	1.302624529309822	0.3864329599695494	0.3570041883856559	0.7572230717796422	0.12484763854085987	0.2222520048224451	0.8023885500024568	-0.030218902052159866	0.18855628711174266	1.0056618998303606	-0.04106909552932002	0.22325610158656675	1.0964742540278891	-0.10659107010803091	0.22310096545931316	1.0869549631790911	-0.1201253501925109	0.17490517882012938	1.0405323334359287
323	5.47457627118644	0.2937477810877417	0.6150472177829777	1.2505645939113375	0.49773969858891004	0.4187751672946061	1.480555498067612	0.4759270447631648	0.6298130078669102	1.9678828652363107	0.5092503629582761	0.38253665636076617	1.9236035927370387	0.5479854062209372	0.45225087699346644	1.9461683082786625	0.450335459533104	0.6910487881266162	2.0376338067792563	0.1401110221750688	0.45157966984012443	1.2247454414613217	0.3277659548871658	0.26635891394129724	1.5237608036715964	0.32184152161985263	0.5693313685398358	1.9486383286506117	0.3340215624176672	0.37137767032236074	1.9446806697620924	0.2787027972257834	0.40850757748399175	1.9399355871136084	0.3364348707096671	0.6653418498930128	2.007759842247322	0.47818520493446165	0.49305596020093206	0.735624716794385	0.6520922364644162	0.4744020303474291	0.5259380912299164	0.6216559436690334	0.4069357461886193	0.6562412281955334	0.4423903341727315	0.6848653013547549	0.8329876233267405	0.1404544812269543	0.6792214214849815	0.9779032318144294	-0.009951624759120935	0.635779215547018	1.173389432226759	-0.07525450034795432	0.7931150180833644	1.3519068683978122	-0.061977181670963964	0.7241087202103669	1.3156595184247635	-0.06334352025726364	0.7954376409583018	1.3300979152572001	0.3833561418716697	0.3553944575522811	0.7381556074237413	0.1214175440188467	0.2202299518665085	0.7993865109471031	-0.03922709561633114	0.171180878177973	1.0177689639168432	-0.0808446268865452	0.15480380644297992	1.090787161546555	-0.12386219625299816	0.14934870483194013	1.0849144517234464	-0.12509437356232356	0.1300315604005646	1.044501581340428
